<mxfile host="app.diagrams.net" agent="Mozilla/5.0 (Windows NT 10.0; Win64; x64) AppleWebKit/537.36 (KHTML, like Gecko) Chrome/134.0.0.0 Safari/537.36" version="26.1.1">
  <diagram name="Strona-1" id="drVkHrgL6Y4eE4CQAnbn">
    <mxGraphModel dx="2261" dy="818" grid="1" gridSize="10" guides="1" tooltips="1" connect="1" arrows="1" fold="1" page="1" pageScale="1" pageWidth="827" pageHeight="1169" math="0" shadow="0">
      <root>
        <mxCell id="0" />
        <mxCell id="1" parent="0" />
        <mxCell id="jtqCCUNuKS-AQmFlPq8c-24" value="" style="rounded=0;whiteSpace=wrap;html=1;" vertex="1" parent="1">
          <mxGeometry x="150" y="240" width="600" height="310" as="geometry" />
        </mxCell>
        <mxCell id="jtqCCUNuKS-AQmFlPq8c-2" value="&lt;font style=&quot;vertical-align: inherit;&quot;&gt;&lt;font style=&quot;vertical-align: inherit;&quot;&gt;FRONTEND&lt;/font&gt;&lt;/font&gt;" style="rounded=0;whiteSpace=wrap;html=1;rotation=0;align=center;verticalAlign=top;" vertex="1" parent="1">
          <mxGeometry x="160" y="280" width="160" height="240" as="geometry" />
        </mxCell>
        <mxCell id="jtqCCUNuKS-AQmFlPq8c-8" value="Actor" style="shape=umlActor;verticalLabelPosition=bottom;verticalAlign=top;html=1;outlineConnect=0;" vertex="1" parent="1">
          <mxGeometry x="-20" y="360" width="30" height="60" as="geometry" />
        </mxCell>
        <mxCell id="jtqCCUNuKS-AQmFlPq8c-9" value="Actor" style="shape=umlActor;verticalLabelPosition=bottom;verticalAlign=top;html=1;outlineConnect=0;" vertex="1" parent="1">
          <mxGeometry x="80" y="600" width="30" height="60" as="geometry" />
        </mxCell>
        <mxCell id="jtqCCUNuKS-AQmFlPq8c-10" value="RejactJS" style="rounded=0;whiteSpace=wrap;html=1;rotation=0;" vertex="1" parent="1">
          <mxGeometry x="170" y="340" width="140" height="140" as="geometry" />
        </mxCell>
        <mxCell id="jtqCCUNuKS-AQmFlPq8c-13" value="" style="endArrow=classic;startArrow=classic;html=1;rounded=0;" edge="1" parent="1">
          <mxGeometry width="50" height="50" relative="1" as="geometry">
            <mxPoint x="310" y="409.5" as="sourcePoint" />
            <mxPoint x="390" y="409.5" as="targetPoint" />
          </mxGeometry>
        </mxCell>
        <mxCell id="jtqCCUNuKS-AQmFlPq8c-22" value="9090" style="edgeLabel;html=1;align=center;verticalAlign=middle;resizable=0;points=[];" vertex="1" connectable="0" parent="jtqCCUNuKS-AQmFlPq8c-13">
          <mxGeometry x="-0.25" relative="1" as="geometry">
            <mxPoint y="1" as="offset" />
          </mxGeometry>
        </mxCell>
        <mxCell id="jtqCCUNuKS-AQmFlPq8c-14" value="" style="endArrow=classic;startArrow=classic;html=1;rounded=0;" edge="1" parent="1">
          <mxGeometry width="50" height="50" relative="1" as="geometry">
            <mxPoint x="510" y="409.5" as="sourcePoint" />
            <mxPoint x="590" y="409.5" as="targetPoint" />
          </mxGeometry>
        </mxCell>
        <mxCell id="jtqCCUNuKS-AQmFlPq8c-21" value="5432" style="edgeLabel;html=1;align=center;verticalAlign=middle;resizable=0;points=[];" vertex="1" connectable="0" parent="jtqCCUNuKS-AQmFlPq8c-14">
          <mxGeometry x="0.35" relative="1" as="geometry">
            <mxPoint y="1" as="offset" />
          </mxGeometry>
        </mxCell>
        <mxCell id="jtqCCUNuKS-AQmFlPq8c-15" value="" style="endArrow=classic;html=1;rounded=0;" edge="1" parent="1">
          <mxGeometry width="50" height="50" relative="1" as="geometry">
            <mxPoint x="130" y="650" as="sourcePoint" />
            <mxPoint x="450" y="530" as="targetPoint" />
            <Array as="points">
              <mxPoint x="450" y="650" />
            </Array>
          </mxGeometry>
        </mxCell>
        <mxCell id="jtqCCUNuKS-AQmFlPq8c-16" value="" style="endArrow=classic;html=1;rounded=0;entryX=-0.007;entryY=0.707;entryDx=0;entryDy=0;entryPerimeter=0;" edge="1" parent="1" target="jtqCCUNuKS-AQmFlPq8c-10">
          <mxGeometry width="50" height="50" relative="1" as="geometry">
            <mxPoint x="30" y="439" as="sourcePoint" />
            <mxPoint x="80" y="385" as="targetPoint" />
          </mxGeometry>
        </mxCell>
        <mxCell id="jtqCCUNuKS-AQmFlPq8c-23" value="3000" style="edgeLabel;html=1;align=center;verticalAlign=middle;resizable=0;points=[];" vertex="1" connectable="0" parent="jtqCCUNuKS-AQmFlPq8c-16">
          <mxGeometry x="0.0646" y="1" relative="1" as="geometry">
            <mxPoint as="offset" />
          </mxGeometry>
        </mxCell>
        <mxCell id="jtqCCUNuKS-AQmFlPq8c-17" value="Server MAp" style="rounded=0;whiteSpace=wrap;html=1;rotation=0;align=center;verticalAlign=top;" vertex="1" parent="1">
          <mxGeometry x="380" y="280" width="160" height="240" as="geometry" />
        </mxCell>
        <mxCell id="jtqCCUNuKS-AQmFlPq8c-18" value="&lt;font style=&quot;vertical-align: inherit;&quot;&gt;&lt;font style=&quot;vertical-align: inherit;&quot;&gt;BAZA DANYCH&lt;/font&gt;&lt;/font&gt;" style="rounded=0;whiteSpace=wrap;html=1;rotation=0;align=center;verticalAlign=top;" vertex="1" parent="1">
          <mxGeometry x="590" y="280" width="160" height="240" as="geometry" />
        </mxCell>
        <mxCell id="jtqCCUNuKS-AQmFlPq8c-19" value="Geoserwer" style="rounded=0;whiteSpace=wrap;html=1;rotation=0;" vertex="1" parent="1">
          <mxGeometry x="390" y="340" width="140" height="140" as="geometry" />
        </mxCell>
        <mxCell id="jtqCCUNuKS-AQmFlPq8c-20" value="PostGIS" style="rounded=0;whiteSpace=wrap;html=1;rotation=0;" vertex="1" parent="1">
          <mxGeometry x="600" y="350" width="140" height="140" as="geometry" />
        </mxCell>
      </root>
    </mxGraphModel>
  </diagram>
</mxfile>
